#!OML:ASF I:\Actors\actors\Patient Classification 2\Patient 1\Session 1\actor1.ASF
:FULLY-SPECIFIED
:DEGREES
109
root -1.15145 18.19 4.96441 2.40442 -4.25019 -3.07247
lowerback 15.7624 0.325104 -0.877722
upperback 2.65128 0.243711 -0.471476
thorax -6.01361 0.129468 -0.0519291
lowerneck -16.1004 -0.0553313 -2.02544
upperneck 12.8421 -0.323985 4.40869
head 6.56323 0.126763 1.71855
rclavicle -8.34896e-015 -3.18055e-015
rhumerus 3.72441 40.9235 -84.9034
rradius 67.8712
rwrist 31.7856
rhand -30.7689 -42.7773
rfingers 7.12502
rthumb -4.05998 -72.7183
lclavicle -8.34896e-015 -3.18055e-015
lhumerus -10.8135 -6.38327 106.171
lradius 69.0436
lwrist 84.5127
lhand -25.6319 -30.3799
lfingers 7.12502
lthumb 0.90129 -0.402081
rfemur 10.9165 -1.01649 19.4602
rtibia -15.1572
rfoot -6.77553 -15.2603
rtoes 3.4147
lfemur 13.8755 2.17041 -12.861
ltibia -21.8104
lfoot 3.71685 14.7871
ltoes -15.9724
110
root -1.15284 18.1921 4.9845 2.41465 -4.25129 -3.14058
lowerback 15.7375 0.345216 -0.940514
upperback 2.57958 0.264886 -0.392963
thorax -6.07711 0.142147 0.062286
lowerneck -16.151 -0.0784106 -2.08985
upperneck 12.927 -0.350092 4.455
head 6.60015 0.116139 1.74244
rclavicle -2.78299e-015 8.74653e-015
rhumerus 3.2258 41.0726 -85.0684
rradius 68.0398
rwrist 31.6109
rhand -30.5343 -42.8633
rfingers 7.12502
rthumb -3.83341 -72.8085
lclavicle -2.78299e-015 8.74653e-015
lhumerus -11.2231 -6.5803 106.235
lradius 69.5947
lwrist 84.9054
lhand -25.8103 -30.5166
lfingers 7.12502
lthumb 0.728922 -0.538063
rfemur 10.8321 -1.05111 19.5376
rtibia -14.8759
rfoot -6.952 -15.1235
rtoes 3.61934
lfemur 13.9032 2.09156 -12.7929
ltibia -21.7424
lfoot 3.63163 14.8422
ltoes -16.277
111
root -1.15643 18.1945 5.00238 2.50505 -4.22922 -3.23397
lowerback 15.6567 0.360088 -0.98113
upperback 2.49639 0.284117 -0.307904
thorax -6.12235 0.153612 0.171521
lowerneck -16.1243 -0.0967373 -2.18355
upperneck 12.9506 -0.358457 4.48099
head 6.60362 0.10952 1.76539
rclavicle 6.75868e-015 1.51076e-014
rhumerus 2.74556 41.0954 -85.2006
rradius 68.2933
rwrist 31.6487
rhand -30.0896 -42.6496
rfingers 7.12502
rthumb -3.40397 -72.6022
lclavicle 6.75868e-015 1.51076e-014
lhumerus -11.6614 -6.78887 106.341
lradius 70.2616
lwrist 85.4641
lhand -25.8196 -30.8979
lfingers 7.12502
lthumb 0.720017 -0.919355
rfemur 10.6952 -1.05381 19.6585
rtibia -14.6641
rfoot -7.10437 -15.0455
rtoes 3.73131
lfemur 13.8824 2.11755 -12.6794
ltibia -21.7677
lfoot 3.63736 14.8099
ltoes -16.6222
112
root -1.16064 18.1957 5.01683 2.54644 -4.16992 -3.30986
lowerback 15.7218 0.36466 -0.999432
upperback 2.41375 0.288969 -0.261081
thorax -6.24646 0.157557 0.229884
lowerneck -16.1381 -0.141108 -2.34553
upperneck 13.0674 -0.413226 4.65488
head 6.64615 0.0910973 1.84379
rclavicle -2.64384e-014 2.46493e-014
rhumerus 2.21768 41.1218 -85.387
rradius 68.6245
rwrist 31.5143
rhand -29.8716 -42.7008
rfingers 7.12502
rthumb -3.19344 -72.6566
lclavicle -2.64384e-014 2.46493e-014
lhumerus -12.1623 -7.00846 106.443
lradius 71.0124
lwrist 86.0431
lhand -25.6854 -31.4212
lfingers 7.12502
lthumb 0.849632 -1.4431
rfemur 10.6514 -1.0722 19.758
rtibia -14.5303
rfoot -7.23921 -14.9989
rtoes 3.89344
lfemur 13.9273 2.16259 -12.5774
ltibia -21.8596
lfoot 3.71852 14.7406
ltoes -16.8813
113
root -1.16427 18.1909 5.02711 2.5062 -4.10932 -3.3754
lowerback 16.017 0.369386 -0.944438
upperback 2.33254 0.299293 -0.272845
thorax -6.49472 0.162266 0.182308
lowerneck -16.2065 -0.21114 -2.56727
upperneck 13.2444 -0.515624 4.98028
head 6.72018 0.0611523 1.97732
rclavicle -3.18055e-015 1.59028e-015
rhumerus 1.49458 41.0765 -85.8322
rradius 69.0217
rwrist 31.2651
rhand -29.9193 -42.9168
rfingers 7.12502
rthumb -3.23948 -72.872
lclavicle -3.18055e-015 1.59028e-015
lhumerus -12.7508 -7.26867 106.486
lradius 71.7966
lwrist 86.2601
lhand -25.6098 -31.7717
lfingers 7.12502
lthumb 0.922563 -1.7939
rfemur 10.7671 -1.1193 19.841
rtibia -14.5703
rfoot -7.3101 -15.0067
rtoes 4.14791
lfemur 14.0785 2.19693 -12.4839
ltibia -22.011
lfoot 3.83449 14.6888
ltoes -17.0566
114
root -1.16948 18.1881 5.03349 2.51435 -4.08091 -3.43801
lowerback 16.3032 0.392623 -0.912951
upperback 2.28852 0.330911 -0.279134
thorax -6.69881 0.177475 0.14928
lowerneck -16.2122 -0.253612 -2.72671
upperneck 13.2333 -0.572238 5.20146
head 6.72105 0.0452321 2.06943
rclavicle 9.93923e-016 -7.95139e-015
rhumerus 0.777323 40.9567 -86.3045
rradius 69.5494
rwrist 30.9566
rhand -30.0494 -43.009
rfingers 7.12502
rthumb -3.36521 -72.9621
lclavicle 9.93923e-016 -7.95139e-015
lhumerus -13.3008 -7.52048 106.516
lradius 72.5624
lwrist 86.3452
lhand -25.6686 -31.9149
lfingers 7.12502
lthumb 0.865803 -1.9369
rfemur 10.8861 -1.19396 19.9266
rtibia -14.7823
rfoot -7.23577 -15.0545
rtoes 4.37978
lfemur 14.1723 2.32252 -12.3764
ltibia -22.1871
lfoot 3.95409 14.6058
ltoes -16.7749
115
root -1.17701 18.1858 5.03415 2.65158 -4.0605 -3.43897
lowerback 16.4927 0.428402 -1.04927
upperback 2.27085 0.353845 -0.244317
thorax -6.82286 0.192809 0.257529
lowerneck -16.1906 -0.279618 -2.86776
upperneck 13.0224 -0.583974 5.30524
head 6.65058 0.0396718 2.12274
rclavicle -2.38542e-015 3.18055e-015
rhumerus 0.30727 40.8922 -86.4323
rradius 70.3117
rwrist 30.7677
rhand -29.9419 -43.3672
rfingers 7.12502
rthumb -3.26132 -73.322
lclavicle -2.38542e-015 3.18055e-015
lhumerus -13.7493 -7.69403 106.587
lradius 73.3137
lwrist 86.4223
lhand -25.746 -32.0273
lfingers 7.12502
lthumb 0.79105 -2.04899
rfemur 10.9665 -1.29521 19.9541
rtibia -15.2571
rfoot -6.90261 -15.1842
rtoes 4.37705
lfemur 14.1559 2.56762 -12.3223
ltibia -22.4825
lfoot 4.15523 14.4655
ltoes -16.235
